<svg xmlns="http://www.w3.org/2000/svg" width="12" height="12" viewBox="0 0 12 12" fill="none"><g clip-path="url(#clip0_72_381)"><path d="M6 12C2.6915 12 0 9.3085 0 6C0 2.6915 2.6915 0 6 0C9.3085 0 12 2.6915 12 6C12 9.3085 9.3085 12 6 12ZM6 1C3.243 1 1 3.243 1 6C1 8.757 3.243 11 6 11C8.757 11 11 8.757 11 6C11 3.243 8.757 1 6 1ZM7.6985 7.9015L6.5 5.8635V2.5H5.5V6.136L6.8365 8.408L7.699 7.901L7.6985 7.9015Z" fill="#7A7A7A"></path></g><defs><clipPath id="clip0_72_381"><rect width="12" height="12" fill="white"></rect></clipPath></defs></svg>