<svg xmlns="http://www.w3.org/2000/svg" width="80" height="80" viewBox="0 0 80 80" fill="none"><g clip-path="url(#clip0_71_172)"><path d="M72.2297 62.1353C71.4236 58.1041 68.3322 54.83 64.3539 53.7941L51.572 50.4659L50.3228 43.4934C52.1273 41.4189 53.3769 38.8008 53.8228 35.9022H54.8812C59.5886 35.9022 63.4183 32.0725 63.4183 27.3652C63.4183 23.4706 60.7959 20.1792 57.225 19.158V7.05078C57.2251 3.16297 54.0622 0 50.1744 0H29.8256C25.9378 0 22.7748 3.16297 22.7748 7.05078V19.158C19.2039 20.1794 16.5816 23.4706 16.5816 27.3652C16.5816 32.0725 20.4112 35.9022 25.1186 35.9022H26.177C26.623 38.8008 27.8726 41.4189 29.677 43.4934L28.4278 50.4659L15.6459 53.7941C11.6676 54.83 8.57608 58.1041 7.77014 62.1353L4.19843 80H75.8016L72.2297 62.1353ZM56.4844 75.3125H51.7578V72.9494C51.7578 71.6462 52.818 70.5861 54.1211 70.5861C55.4242 70.5861 56.4844 71.6462 56.4844 72.9494V75.3125ZM33.8492 46.7869C35.707 47.748 37.7945 48.2886 40 48.2886C42.2055 48.2886 44.293 47.748 46.1508 46.7869L46.9609 51.3089L40 56.2727L33.0391 51.3089L33.8492 46.7869ZM30.6831 23.5156H49.3169V33.5327C49.3169 39.0844 45.1373 43.6011 40 43.6011C34.8626 43.6011 30.6831 39.0844 30.6831 33.5327V23.5156ZM58.7309 27.3652C58.7309 29.4878 57.0041 31.2147 54.8814 31.2147H54.0044V23.5156H54.8814C57.0041 23.5156 58.7309 25.2425 58.7309 27.3652ZM29.8256 4.6875H50.1744C51.4775 4.6875 52.5376 5.74766 52.5376 7.05078V18.8281H27.4623V7.05078C27.4623 5.74766 28.5225 4.6875 29.8256 4.6875ZM21.269 27.3652C21.269 25.2425 22.9959 23.5156 25.1186 23.5156H25.9956V31.2145H25.1186C22.9959 31.2145 21.269 29.4878 21.269 27.3652ZM12.3669 63.0542C12.8233 60.7711 14.574 58.9169 16.8273 58.3302L23.5351 56.5836V65.898H21.1719V70.5855H30.5859V65.898H28.2226V55.363L30.0012 54.8998L40 62.03L49.9987 54.9L51.7773 55.3631V66.3006C49.0384 67.2691 47.0703 69.883 47.0703 72.9494V75.3125H9.91593L12.3669 63.0542ZM61.1719 75.3125V72.9494C61.1719 69.8831 59.2037 67.2691 56.4648 66.3006V56.5836L63.1726 58.3302C65.4258 58.9167 67.1765 60.7711 67.6331 63.0542L70.0841 75.3125H61.1719Z" fill="#D1B597"></path><path d="M37.6572 16.4648H42.3447V14.1016H44.7079V9.41406H42.3447V7.05078H37.6572V9.41406H35.2939V14.1016H37.6572V16.4648Z" fill="#D1B597"></path></g><defs><clipPath id="clip0_71_172"><rect width="80" height="80" fill="white"></rect></clipPath></defs></svg>