<svg xmlns="http://www.w3.org/2000/svg" xmlns:xlink="http://www.w3.org/1999/xlink" id="Capa_1" x="0px" y="0px" viewBox="0 0 512 512" style="enable-background:new 0 0 512 512;" xml:space="preserve" width="512" height="512"><rect x="399.766" y="410.481" transform="matrix(-0.7071 -0.7071 0.7071 -0.7071 440.6065 1063.7181)" style="fill:none;stroke:#000000;stroke-width:30;stroke-miterlimit:10;" width="81.681" height="60.25"></rect><circle style="fill:none;stroke:#000000;stroke-width:30;stroke-miterlimit:10;" cx="325.948" cy="325.945" r="75.312"></circle><line style="fill:none;stroke:#000000;stroke-width:30;stroke-miterlimit:10;" x1="379.202" y1="379.199" x2="411.729" y2="411.726"></line><polyline style="fill:none;stroke:#000000;stroke-width:30;stroke-miterlimit:10;" points="346.375,401.258 346.375,466.875 &#10;&#9;15,466.875 15,15 256,15 346.375,105.377 346.375,253.448 "></polyline><line style="fill:none;stroke:#000000;stroke-width:30;stroke-miterlimit:10;" x1="60.25" y1="105.377" x2="180.687" y2="105.377"></line><line style="fill:none;stroke:#000000;stroke-width:30;stroke-miterlimit:10;" x1="60.25" y1="165.629" x2="301.188" y2="165.629"></line><line style="fill:none;stroke:#000000;stroke-width:30;stroke-miterlimit:10;" x1="60.25" y1="225.876" x2="301.188" y2="225.876"></line><line style="fill:none;stroke:#000000;stroke-width:30;stroke-miterlimit:10;" x1="60.25" y1="286.123" x2="262.005" y2="286.123"></line><polyline style="fill:none;stroke:#000000;stroke-width:30;stroke-miterlimit:10;" points="256,15 256,105.375 346.375,105.375 "></polyline><polyline style="fill:none;stroke:#000000;stroke-width:30;stroke-miterlimit:10;" points="75.288,376.498 105.413,346.373 &#10;&#9;135.538,376.5 165.663,346.373 "></polyline></svg>