<svg xmlns="http://www.w3.org/2000/svg" id="line" viewBox="0 0 64 64"><path d="m5.55463 23.83257 26.44437-17.62926 26.44437 17.62926a1.00016 1.00016 0 0 0 1.10926-1.664l-8.55431-5.70289v-11.28479a.9997.9997 0 0 0 -1-1h-6.4011a.9997.9997 0 0 0 -1 1v5.68411l-10.04355-6.69579a.99743.99743 0 0 0 -1.10934 0l-26.99903 17.99935a1.00017 1.00017 0 0 0 1.10933 1.66401zm39.04255-17.65172h4.40121v8.95153l-4.40121-2.93416z"></path><path d="m8.49984 24.81007v9.68032a1.00015 1.00015 0 0 0 1.99992-.00006v-9.68026a1.00016 1.00016 0 0 0 -1.99992 0z"></path><path d="m53.49823 24.81007v9.68032a1.00016 1.00016 0 0 0 1.99993-.00006v-9.68026a1.00016 1.00016 0 0 0 -1.99993 0z"></path><path d="m31.99906 16.64844c-4.767-4.06956-12.69651-.38122-12.49961 5.9205 0 6.92163 11.59724 12.191 12.09087 12.41264a1.01092 1.01092 0 0 0 .40868.08691c.64078-.03448 12.43461-5.47648 12.49943-12.49937.19957-6.30269-7.73501-9.98871-12.49937-5.92068zm10.49956 5.9205c0 4.47543-7.22386 8.84246-10.49962 10.39807-3.27576-1.55561-10.49963-5.92264-10.49956-10.39807a5.63248 5.63248 0 0 1 5.67161-5.63359 6.24175 6.24175 0 0 1 4.2059 1.77332c.68943.5665 1.38246-.08588 1.91155-.5302 3.46081-2.96947 9.42973-.22631 9.21012 4.39047z"></path><path d="m39.31319 50.398-3.64049-1.21307a6.18985 6.18985 0 0 0 2.5273-4.98393c-.2895-8.20291-12.11057-8.20851-12.40191.0001a6.18984 6.18984 0 0 0 2.52727 4.9839l-3.641 1.213a5.36057 5.36057 0 0 0 -3.67077 5.0926v2.26066a2.25061 2.25061 0 0 0 2.248 2.248h17.475a2.25061 2.25061 0 0 0 2.248-2.248v-2.26064a5.36038 5.36038 0 0 0 -3.6714-5.09262zm-7.31419-10.398a4.20119 4.20119 0 0 1 -.00009 8.402 4.20119 4.20119 0 0 1 .00009-8.402zm8.98552 17.75132a.24839.24839 0 0 1 -.248.248h-17.475a.24838.24838 0 0 1 -.248-.248v-2.2607a3.36588 3.36588 0 0 1 2.30314-3.19618c2.42545-.67869 6.0899-2.63021 8.63443-1.57608l4.72984 1.57608a3.36568 3.36568 0 0 1 2.30363 3.19618z"></path><path d="m56.024 48.63051-4.18367-1.39151c5.34549-3.64652 2.73531-12.25352-3.82643-12.23878a6.735 6.735 0 0 0 -3.82841 12.23718l-1.85141.61286a1.0001 1.0001 0 0 0 .62894 1.89835l2.87191-.95111c2.98-1.15649 6.71422.946 9.55536 1.73036a3.80865 3.80865 0 0 1 2.60778 3.61124v2.49015a.36589.36589 0 0 1 -.3701.3701h-11.64949a1 1 0 0 0 0 1.99993h11.64952a2.373 2.373 0 0 0 2.37-2.37v-2.49018a5.80838 5.80838 0 0 0 -3.974-5.50859zm-8.01-11.63044c6.2389.19857 6.23645 9.24464-.0001 9.442-6.23836-.19848-6.2379-9.24417.00015-9.442z"></path><path d="m18.01952 56.99935h-11.64952a.38.38 0 0 1 -.3701-.37987v-2.48038a3.79312 3.79312 0 0 1 2.60733-3.6112l5.199-1.74017a6.95392 6.95392 0 0 1 4.3558 0l2.87.95993a1.0001 1.0001 0 0 0 .63467-1.89643l-1.85143-.61905a6.71422 6.71422 0 0 0 2.89-5.51451c-.31429-8.89157-13.12579-8.89761-13.44191.00011a6.714 6.714 0 0 0 2.89034 5.51452l-4.17728 1.39821a5.788 5.788 0 0 0 -3.97642 5.50859v2.48038a2.37764 2.37764 0 0 0 2.37 2.3798h11.64952a1.00015 1.00015 0 0 0 0-1.99993zm-2.03509-20.00319c6.24228.19957 6.23611 9.25044-.00559 9.4415-6.23546-.20495-6.2281-9.24446.00559-9.4415z"></path></svg>