<svg xmlns="http://www.w3.org/2000/svg" viewBox="0 0 512.00013 512"><path d="m380.769531 218.226562c19.285157-19.238281 19.285157-50.539062 0-69.777343-18.574219-18.519531-48.359375-19.207031-67.765625-2.054688-19.402344-17.152343-49.1875-16.46875-67.761718 2.054688-19.285157 19.238281-19.285157 50.539062 0 69.777343l67.761718 67.59375zm-114.304687-48.601562c3.792968-3.785156 8.769531-5.675781 13.753906-5.675781 4.976562 0 9.960938 1.894531 13.75 5.671875l19.039062 18.988281 19.03125-18.984375c7.582032-7.566406 19.921876-7.566406 27.503907-.003906 7.585937 7.566406 7.585937 19.871094 0 27.4375l-46.539063 46.417968-46.539062-46.417968c-7.582032-7.566406-7.582032-19.871094 0-27.433594zm0 0"></path><path d="m507.628906 304.15625c-5.6875-13.25-16.128906-23.390625-29.402344-28.546875-10.445312-4.058594-21.640624-4.613281-32.238281-1.71875v-127.519531l18.566407 14.84375 18.769531-23.363282-172.429688-137.851562-172.429687 137.851562 18.773437 23.363282 20.21875-16.167969v138.421875l-30.757812-4.664062c-36.378907-5.523438-73.898438 6.746093-100.390625 32.816406l-46.308594 44.5625 20.839844 21.546875 46.371094-44.621094.125-.125c20.082031-19.792969 47.363281-28.75 74.851562-24.582031l134.445312 20.398437c12.160157 1.84375 20.546876 13.273438 19.09375 26.019531-.746093 6.542969-3.964843 12.292969-9.066406 16.183594-4.773437 3.648438-10.628906 5.167969-16.480468 4.28125l-126.660157-19.214844-4.511719 29.597657 126.65625 19.214843c2.628907.398438 5.257813.597657 7.863282.597657 11.273437 0 22.191406-3.683594 31.378906-10.699219 10.902344-8.320312 18.230469-20.785156 20.347656-34.445312l125.347656-56.386719c5.339844-2.398438 11.285157-2.558594 16.730469-.441407 5.703125 2.214844 10.214844 6.628907 12.699219 12.425782 5.148438 12-.070312 25.996094-11.636719 31.199218l-181.179687 81.566407-179.566406-26.464844-107.324219 86.476563 18.859375 23.289062 97.09375-78.226562 175.257812 25.828124 189.207032-85.179687c26.355468-11.863281 38.414062-43.382813 26.886718-70.265625zm-226.484375-4.957031-73.671875-11.175781v-166.972657l103.421875-82.679687 105.078125 84.003906v164.308594l-94.949218 42.710937c-7.179688-15.699219-21.722657-27.441406-39.878907-30.195312zm0 0"></path></svg>