<svg xmlns="http://www.w3.org/2000/svg" height="512" viewBox="0 0 64 64" width="512"><g id="medical_record" data-name="medical record"><path d="m49 61h-34a5 5 0 0 1 -5-5v-42a5 5 0 0 1 5-5h4a1 1 0 0 1 1 1v4a1 1 0 0 0 1 1h22a1 1 0 0 0 1-1v-4a1 1 0 0 1 1-1h4a5 5 0 0 1 5 5v42a5 5 0 0 1 -5 5zm-34-50a3 3 0 0 0 -3 3v42a3 3 0 0 0 3 3h34a3 3 0 0 0 3-3v-42a3 3 0 0 0 -3-3h-3v3a3 3 0 0 1 -3 3h-22a3 3 0 0 1 -3-3v-3z"></path><path d="m47 57h-30a3 3 0 0 1 -3-3v-38a3 3 0 0 1 3-3h2a1 1 0 0 1 1 1 1 1 0 0 0 1 1h22a1 1 0 0 0 1-1 1 1 0 0 1 1-1h2a3 3 0 0 1 3 3v38a3 3 0 0 1 -3 3zm-30-42a1 1 0 0 0 -1 1v38a1 1 0 0 0 1 1h30a1 1 0 0 0 1-1v-38a1 1 0 0 0 -1-1h-1.17a3 3 0 0 1 -2.83 2h-22a3 3 0 0 1 -2.83-2z"></path><path d="m35 36h-6a1 1 0 0 1 -1-1v-3h-3a1 1 0 0 1 -1-1v-6a1 1 0 0 1 1-1h3v-3a1 1 0 0 1 1-1h6a1 1 0 0 1 1 1v3h3a1 1 0 0 1 1 1v6a1 1 0 0 1 -1 1h-3v3a1 1 0 0 1 -1 1zm-5-2h4v-3a1 1 0 0 1 1-1h3v-4h-3a1 1 0 0 1 -1-1v-3h-4v3a1 1 0 0 1 -1 1h-3v4h3a1 1 0 0 1 1 1z"></path><path d="m43 17h-22a3 3 0 0 1 -3-3v-4a3 3 0 0 1 3-3h6.1a5 5 0 0 1 9.8 0h6.1a3 3 0 0 1 3 3v4a3 3 0 0 1 -3 3zm-22-8a1 1 0 0 0 -1 1v4a1 1 0 0 0 1 1h22a1 1 0 0 0 1-1v-4a1 1 0 0 0 -1-1h-7a1 1 0 0 1 -1-1 3 3 0 0 0 -6 0 1 1 0 0 1 -1 1z"></path><path d="m42 41h-20a1 1 0 0 1 0-2h20a1 1 0 0 1 0 2z"></path><path d="m42 46h-20a1 1 0 0 1 0-2h20a1 1 0 0 1 0 2z"></path><path d="m42 51h-20a1 1 0 0 1 0-2h20a1 1 0 0 1 0 2z"></path></g></svg>