<svg xmlns="http://www.w3.org/2000/svg" xmlns:xlink="http://www.w3.org/1999/xlink" width="512" height="512" x="0" y="0" viewBox="0 0 512 512" style="enable-background:new 0 0 512 512" xml:space="preserve"><g><path d="M425.321 70.223c-58.525 0-114.786-21.479-158.421-60.479L256 0l-10.899 9.744c-43.634 39.001-99.897 60.48-158.422 60.48H34.038v115.331c0 66.787 18.98 131.855 54.889 188.168 35.909 56.313 86.896 100.971 147.45 129.147L256 512l19.623-9.13c60.553-28.176 111.541-72.833 147.45-129.147 35.909-56.313 54.889-121.381 54.889-188.168V70.223h-52.641zm22.629 115.331c0 61.06-17.353 120.547-50.182 172.032-32.829 51.484-79.444 92.313-134.806 118.073L256 478.898l-6.963-3.24c-55.362-25.76-101.976-66.588-134.806-118.073C81.402 306.1 64.05 246.613 64.05 185.553v-85.319h22.63c61.914 0 121.577-21.341 169.321-60.338 47.743 38.995 107.406 60.338 169.321 60.338h22.63v85.32z" fill="#ffffff" opacity="1" data-original="#000000"></path><path d="M301.682 210.345v-51.441h-91.364v51.441h-51.441v91.364h51.441v51.441h91.364v-51.44h51.441v-91.364h-51.441zm21.43 61.354h-51.441v51.441h-31.342v-51.441h-51.441v-31.342h51.441v-51.441h31.342v51.441h51.441v31.342z" fill="#ffffff" opacity="1" data-original="#000000"></path></g></svg>