<svg xmlns="http://www.w3.org/2000/svg" xmlns:xlink="http://www.w3.org/1999/xlink" width="512" height="512" x="0" y="0" viewBox="0 0 510 510" style="enable-background:new 0 0 512 512" xml:space="preserve" class=""><g><path d="M124.835 441.746c-41.005-41.005-41.005-107.487 0-148.492l190.919-190.919c41.005-41.005 107.487-41.005 148.492 0 41.005 41.005 41.005 107.487 0 148.492L273.327 441.746c-41.005 41.005-107.487 41.005-148.492 0z" style="stroke-width:30;stroke-miterlimit:10;" fill="none" stroke="#d5be9f" stroke-width="30" stroke-miterlimit="10" data-original="#000000" class="" opacity="1"></path><path d="M189.541 242.04h210v60h-210z" style="stroke-width:30;stroke-miterlimit:10;" transform="rotate(45.001 294.545 272.039)" fill="none" stroke="#d5be9f" stroke-width="30" stroke-miterlimit="10" data-original="#000000" class="" opacity="1"></path><path d="M116.061 303.2C57.93 288.15 15 235.34 15 172.5c0-74.56 60.439-135 135-135 62.5 0 115.08 42.47 130.45 100.13M120 304.15V40.85M180 238.08V40.85" style="stroke-width:30;stroke-miterlimit:10;" fill="none" stroke="#d5be9f" stroke-width="30" stroke-miterlimit="10" data-original="#000000" class="" opacity="1"></path></g></svg>