<svg xmlns="http://www.w3.org/2000/svg" id="Layer_1" viewBox="0 0 512 512" data-name="Layer 1"><path d="m479.297 151.416h-50.526c-1.162-3.071-3.101-5.815-5.737-8.029-4.517-3.795-10.2-5.327-16.01-4.309l-17.453 3.05c-2.311-15.688-15.862-27.767-32.182-27.767s-29.871 12.079-32.182 27.767l-17.451-3.05c-5.807-1.012-11.496.514-16.01 4.308-2.636 2.215-4.575 4.958-5.738 8.03h-50.526c-15.827 0-28.703 12.876-28.703 28.703v299.179c0 15.827 12.876 28.703 28.703 28.703h243.813c15.826 0 28.702-12.875 28.703-28.703v-299.179c0-15.827-12.876-28.703-28.703-28.703zm-180.553 7c0-1.791.638-3.16 2.008-4.312 1.372-1.152 2.832-1.543 4.594-1.236l25.31 4.424c2.036.356 4.126-.207 5.709-1.537 1.582-1.33 2.496-3.292 2.496-5.359v-3.506c0-10.217 8.312-18.529 18.529-18.529s18.529 8.312 18.529 18.529v3.506c0 2.067.914 4.029 2.496 5.359 1.583 1.33 3.667 1.891 5.709 1.537l25.312-4.424c1.763-.308 3.222.085 4.593 1.237 1.37 1.151 2.008 2.521 2.008 4.311v20.474h-117.292v-20.474zm124.292 34.474c3.401 0 6.232-2.426 6.866-5.641h42.264v284.918h-229.553v-284.917h42.265c.633 3.215 3.465 5.641 6.866 5.641h131.292zm70.964 286.407c0 8.107-6.597 14.703-14.703 14.703h-243.814c-8.107 0-14.703-6.596-14.703-14.703v-299.178c0-8.107 6.596-14.703 14.703-14.703h49.261v7.833h-49.131c-3.866 0-7 3.134-7 7v298.918c0 3.866 3.134 7 7 7h243.553c3.866 0 7-3.134 7-7v-298.917c0-3.866-3.134-7-7-7h-49.13v-7.833h49.261c8.107 0 14.703 6.596 14.703 14.703zm-145.405-253.991c0-3.866 3.134-7 7-7h88.227c3.866 0 7 3.134 7 7s-3.134 7-7 7h-88.227c-3.866 0-7-3.134-7-7zm0 34.169c0-3.866 3.134-7 7-7h87.644c3.866 0 7 3.134 7 7s-3.134 7-7 7h-87.644c-3.866 0-7-3.134-7-7zm-77.636-49.811h35.222c3.866 0 7 3.134 7 7s-3.134 7-7 7h-28.222v37.452h37.452v-15.386l-10.002 10.002c-1.321 1.321-3.106 2.05-4.95 2.05-.304 0-.608-.02-.914-.06-2.157-.284-4.06-1.555-5.148-3.44l-9.155-15.857c-1.933-3.348-.785-7.629 2.562-9.562 3.35-1.935 7.63-.787 9.562 2.562l4.594 7.957 27.873-27.873c2.735-2.733 7.167-2.733 9.9 0 2.733 2.734 2.733 7.166 0 9.899l-10.321 10.321v36.386c0 3.866-3.134 7-7 7h-51.452c-3.866 0-7-3.134-7-7v-51.452c0-3.866 3.134-7 7-7zm77.636 137.231c0-3.866 3.134-7 7-7h87.644c3.866 0 7 3.134 7 7s-3.134 7-7 7h-87.644c-3.866 0-7-3.134-7-7zm0-34.169c0-3.866 3.134-7 7-7h88.227c3.866 0 7 3.134 7 7s-3.134 7-7 7h-88.227c-3.866 0-7-3.134-7-7zm-8.861-13.796c2.733 2.734 2.733 7.166 0 9.899l-10.321 10.321v36.386c0 3.866-3.134 7-7 7h-51.452c-3.866 0-7-3.134-7-7v-51.453c0-3.866 3.134-7 7-7h35.222c3.866 0 7 3.134 7 7s-3.134 7-7 7h-28.222v37.453h37.452v-15.386l-10.002 10.002c-1.321 1.321-3.105 2.05-4.95 2.05-.304 0-.608-.02-.914-.06-2.157-.284-4.06-1.555-5.148-3.44l-9.155-15.856c-1.933-3.348-.786-7.629 2.562-9.562 3.35-1.935 7.63-.786 9.562 2.562l4.594 7.956 27.873-27.873c2.735-2.734 7.167-2.733 9.9 0zm8.861 101.216c0-3.866 3.134-7 7-7h88.227c3.866 0 7 3.134 7 7s-3.134 7-7 7h-88.227c-3.866 0-7-3.134-7-7zm0 34.169c0-3.866 3.134-7 7-7h87.644c3.866 0 7 3.134 7 7s-3.134 7-7 7h-87.644c-3.866 0-7-3.134-7-7zm-8.861-47.966c2.733 2.734 2.733 7.166 0 9.899l-10.321 10.321v36.387c0 3.866-3.134 7-7 7h-51.452c-3.866 0-7-3.134-7-7v-51.453c0-3.866 3.134-7 7-7h35.222c3.866 0 7 3.134 7 7s-3.134 7-7 7h-28.222v37.453h37.452v-15.386l-10.002 10.002c-1.321 1.321-3.105 2.05-4.95 2.05-.304 0-.608-.02-.914-.06-2.157-.284-4.06-1.555-5.148-3.44l-9.155-15.856c-1.933-3.348-.786-7.629 2.562-9.562 3.35-1.934 7.63-.786 9.562 2.562l4.594 7.956 27.873-27.873c2.735-2.734 7.167-2.733 9.9 0zm-221.764-161.671v-17.54h17.539c3.866 0 7-3.134 7-7v-23.325h38.106c1.966 0 3.841-.827 5.167-2.277 1.326-1.451 1.981-3.393 1.805-5.351-2.056-22.82-12.514-43.957-29.446-59.516-9.915-9.11-21.561-15.819-34.124-19.853 11.727-8.67 19.349-22.589 19.349-38.26 0-26.224-21.335-47.558-47.559-47.558s-47.557 21.336-47.557 47.56c0 15.67 7.621 29.59 19.348 38.259-12.563 4.034-24.21 10.743-34.124 19.853-16.934 15.559-27.391 36.695-29.446 59.516-.177 1.958.479 3.899 1.805 5.351 1.326 1.451 3.201 2.277 5.167 2.277h38.105v23.325c0 3.866 3.134 7 7 7h17.539v17.54c0 3.866 3.134 7 7 7h30.325c3.866 0 7-3.134 7-7zm-22.162-206.678c18.504 0 33.559 15.054 33.559 33.558s-15.055 33.558-33.559 33.558-33.558-15.054-33.558-33.558 15.054-33.558 33.558-33.558zm0 81.391c38.125 0 69.886 26.772 76.779 63.423h-54.617v-17.54c0-3.866-3.134-7-7-7h-30.325c-3.866 0-7 3.134-7 7v17.54h-54.617c6.894-36.651 38.654-63.423 76.779-63.423zm8.162 100.748v17.54h-16.325v-17.54c0-3.866-3.134-7-7-7h-17.539v-16.325h17.539c3.866 0 7-3.134 7-7v-17.54h16.325v17.54c0 3.866 3.134 7 7 7h17.539v16.325h-17.539c-3.866 0-7 3.134-7 7zm86.291 143.219c0 2.217-1.05 4.303-2.831 5.623l-20.788 15.412c-1.253.929-2.715 1.377-4.163 1.377-2.142 0-4.256-.979-5.629-2.832-2.303-3.105-1.651-7.49 1.454-9.792l3.762-2.789h-66.258c-3.866 0-7-3.134-7-7v-90.48c0-3.866 3.134-7 7-7s7 3.134 7 7v83.48h59.258l-3.762-2.789c-3.105-2.302-3.757-6.687-1.454-9.792 2.302-3.104 6.688-3.756 9.792-1.454l20.788 15.412c1.781 1.32 2.831 3.406 2.831 5.623zm-13.15-307.649c0-3.866 3.134-7 7-7h173.279c3.866 0 7 3.134 7 7v37.459l2.79-3.763c2.302-3.104 6.688-3.757 9.792-1.454 3.105 2.303 3.757 6.687 1.454 9.792l-15.413 20.788c-1.32 1.781-3.406 2.831-5.623 2.831s-4.303-1.05-5.623-2.831l-15.412-20.788c-2.303-3.105-1.651-7.49 1.454-9.792 3.107-2.303 7.491-1.65 9.792 1.454l2.789 3.762v-30.458h-166.28c-3.866 0-7-3.134-7-7z"></path></svg>