<svg xmlns="http://www.w3.org/2000/svg" id="Capa_1" height="512" viewBox="0 0 512.018 512.018" width="512"><g><g id="Page-1_19_"><g id="_x30_20---Cancer-Pill" transform="translate(-1 -1)"><path id="Path_32_" clip-rule="evenodd" d="m461.775 302.97c.085 24.908-9.8 48.815-27.452 66.389-2.218 2.142-3.108 5.315-2.327 8.299.781 2.983 3.111 5.313 6.094 6.094s6.156-.109 8.299-2.327c43.27-43.355 43.27-113.556 0-156.911-3.348-3.234-8.671-3.188-11.962.104-3.292 3.292-3.338 8.614-.104 11.962 17.652 17.575 27.537 41.482 27.452 66.39z" fill-rule="evenodd"></path><path id="Path_31_" clip-rule="evenodd" d="m277.481 79.712c2.142 2.218 5.315 3.108 8.299 2.327 2.983-.781 5.313-3.111 6.094-6.094.781-2.984-.109-6.156-2.327-8.299-20.804-20.805-49.021-32.493-78.443-32.493s-57.639 11.688-78.443 32.493c-2.218 2.143-3.108 5.315-2.327 8.299s3.111 5.313 6.094 6.094c2.984.781 6.156-.109 8.299-2.327 17.604-17.605 41.48-27.496 66.377-27.496 24.897.001 48.773 9.891 66.377 27.496z" fill-rule="evenodd"></path><path id="Shape_42_" d="m154.652 513.018c58.624-.074 112.093-33.511 137.822-86.187 62.722 38.192 144.092 23.49 189.483-34.237s40.484-140.269-11.426-192.212l-78.413-78.413-78.43-78.43c-51.912-51.981-134.497-56.926-192.24-11.509s-72.395 126.843-34.107 189.54c-64.292 31.296-98.451 102.848-82.36 172.519s78.166 118.996 149.671 118.929zm303.787-119.526c-42.352 42.605-108.722 49.812-159.232 17.289 19.068-52.861 7.425-111.929-30.276-153.6l117.146-117.12 72.363 72.388c49.912 50.026 49.912 131.016-.001 181.043zm-337.852-337.861c24-24.02 56.562-37.516 90.517-37.516s66.518 13.496 90.517 37.516l72.388 72.388-117.119 117.095c-41.67-37.703-100.739-49.346-153.6-30.276-32.514-50.505-25.304-116.863 17.297-159.207zm34.065 167.254c75.405 0 136.533 61.128 136.533 136.533s-61.128 136.533-136.533 136.533-136.533-61.128-136.533-136.533c.089-75.368 61.165-136.444 136.533-136.533z"></path><path id="Shape_41_" d="m69.319 436.218v8.533c0 4.713 3.82 8.533 8.533 8.533s8.533-3.82 8.533-8.533v-12.971l16.401-13.124c1.632.269 3.279.434 4.932.495 1.472-.005 2.942-.096 4.403-.273.582 18.435 15.554 33.156 33.997 33.425v18.048c0 4.713 3.821 8.533 8.533 8.533 4.713 0 8.533-3.82 8.533-8.533v-22.331c2.251-1.211 4.353-2.68 6.263-4.378 3.412-2.991 6.194-6.632 8.183-10.709 13.225 5.917 28.671 3.727 39.731-5.632l5.581 4.471v12.979c0 4.713 3.821 8.533 8.533 8.533 4.713 0 8.533-3.82 8.533-8.533v-8.533h8.533c4.713 0 8.533-3.82 8.533-8.533s-3.821-8.533-8.533-8.533h-14.071l-6.63-5.325c6.191-13.062 4.315-28.521-4.821-39.723 2.244-1.854 4.309-3.914 6.17-6.153h36.395c4.713 0 8.533-3.821 8.533-8.533 0-4.713-3.821-8.533-8.533-8.533h-27.418c4.603-15.982.325-33.205-11.221-45.175l7.526-6.025h14.046c4.713 0 8.533-3.82 8.533-8.533s-3.82-8.533-8.533-8.533h-8.533v-8.533c0-4.713-3.821-8.533-8.533-8.533-4.713 0-8.533 3.821-8.533 8.533v12.971l-10.453 8.363c-6.089-2.802-12.711-4.258-19.413-4.267-1.57 0-3.106.282-4.651.435-1.717-13.221-12.023-23.683-25.216-25.6v-17.502c0-4.713-3.821-8.533-8.533-8.533-4.713 0-8.533 3.821-8.533 8.533v20.062c-8.97 4.287-15.212 12.766-16.64 22.605-.145 0-.282 0-.427 0-9.487.04-18.685 3.271-26.112 9.173l-16.555-13.269v-12.971c0-4.713-3.821-8.533-8.533-8.533-4.713 0-8.533 3.821-8.533 8.533v8.533h-8.533c-4.713 0-8.533 3.82-8.533 8.533s3.821 8.533 8.533 8.533h14.071l17.015 13.653c-5.998 10.4-7.14 22.905-3.123 34.219-1.726.978-3.372 2.091-4.924 3.328h-40.106c-4.713 0-8.533 3.821-8.533 8.533 0 4.713 3.821 8.533 8.533 8.533h27.819c-5.638 15.762-.302 33.357 13.141 43.332l-9.822 7.868h-14.072c-4.713 0-8.533 3.821-8.533 8.533s3.821 8.533 8.533 8.533h8.534zm33.16-76.1c1.705-.48 3.469-.716 5.239-.7 5.496.005 10.77 2.168 14.686 6.025-1.229 3.553-1.866 7.283-1.886 11.042-.014 5.822 1.486 11.547 4.352 16.614-1.782 2.608-4.134 4.776-6.878 6.34-7.252 4.076-16.211 3.564-22.952-1.309s-10.034-13.221-8.437-21.385c1.599-8.163 7.795-14.654 15.876-16.627zm52.531-.7c.382.085.77.145 1.161.179 5.473.469 10.389 3.535 13.218 8.243-7.999 6.302-13.145 15.541-14.293 25.66-4.777.172-9.404-1.688-12.732-5.12-.304-.307-.589-.632-.853-.973-4.479-5.411-5.2-13.009-1.818-19.166 3.143-5.486 8.995-8.857 15.317-8.823zm-25.958 58.368c.014-2.047.414-4.074 1.178-5.973 2.485-1.814 4.738-3.926 6.707-6.289 5.328 3.287 11.455 5.05 17.715 5.094.794 0 1.57-.043 2.33-.094 1.483 4.185 3.687 8.077 6.511 11.503-.847 3.441-2.729 6.538-5.393 8.875-1.83 1.635-4.002 2.842-6.357 3.533-1.66.586-3.411.874-5.171.853-9.67 0-17.51-7.833-17.52-17.502zm64 1.365c-11.782 0-21.333-9.551-21.333-21.333s9.551-21.333 21.333-21.333 21.333 9.551 21.333 21.333-9.551 21.333-21.333 21.333zm29.867-81.066c.09 10.151-5.074 19.627-13.653 25.054-5.064-2.421-10.601-3.692-16.213-3.721-2.809.018-5.608.344-8.346.973-4.441-8.187-12.013-14.222-20.983-16.725-.347-1.84-.527-3.708-.538-5.581-.02-5.343 1.429-10.589 4.19-15.164.258-.501.543-.988.853-1.459 3.42-5.06 8.298-8.962 13.986-11.187 9.186-3.577 19.546-2.391 27.686 3.171 8.14 5.561 13.011 14.78 13.018 24.639zm-51.2-42.667c0 .367-.154.708-.188 1.084-4.198 2.176-8.042 4.975-11.401 8.303-3.948-4.192-8.695-7.552-13.961-9.882.538-6.749 6.239-11.911 13.007-11.78 6.77.131 12.266 5.511 12.543 12.275zm-35.729 13.747c5.731 1.679 10.7 5.299 14.054 10.24-2.598 5.884-3.935 12.247-3.925 18.679.053 1.773.204 3.543.452 5.299-5.414 1.334-10.42 3.97-14.583 7.68-6.83-5.639-15.412-8.72-24.269-8.713-.913 0-1.792.111-2.688.179-1.034-2.789-1.569-5.738-1.579-8.713 0-14.138 11.462-25.6 25.6-25.6 2.346-.009 4.681.31 6.938.949z"></path></g></g></g></svg>