<svg xmlns="http://www.w3.org/2000/svg" xmlns:xlink="http://www.w3.org/1999/xlink" id="Capa_1" x="0px" y="0px" viewBox="0 0 511.917 511.917" style="enable-background:new 0 0 511.917 511.917;" xml:space="preserve"><g>	<path style="fill:none;stroke:#000000;stroke-width:30;stroke-miterlimit:10;" d="M15,369.251h187.136&#10;&#9;&#9;c29.725,0,53.822,24.097,53.822,53.822v6.181v-6.181c0-29.725,24.097-53.822,53.822-53.822h187.136"></path>			<line style="fill:none;stroke:#000000;stroke-width:30;stroke-miterlimit:10;" x1="61.459" y1="139.237" x2="209.499" y2="139.237"></line>			<line style="fill:none;stroke:#000000;stroke-width:30;stroke-miterlimit:10;" x1="179.499" y1="279.245" x2="209.499" y2="279.245"></line>			<line style="fill:none;stroke:#000000;stroke-width:30;stroke-miterlimit:10;" x1="302.417" y1="139.237" x2="332.417" y2="139.237"></line>			<line style="fill:none;stroke:#000000;stroke-width:30;stroke-miterlimit:10;" x1="61.459" y1="209.241" x2="209.499" y2="209.241"></line>			<line style="fill:none;stroke:#000000;stroke-width:30;stroke-miterlimit:10;" x1="61.459" y1="279.245" x2="146.496" y2="279.245"></line>			<line style="fill:none;stroke:#000000;stroke-width:30;stroke-miterlimit:10;" x1="302.417" y1="279.245" x2="450.458" y2="279.245"></line>			<line style="fill:none;stroke:#000000;stroke-width:30;stroke-miterlimit:10;" x1="302.417" y1="209.241" x2="450.458" y2="209.241"></line>			<line style="fill:none;stroke:#000000;stroke-width:30;stroke-miterlimit:10;" x1="365.421" y1="139.237" x2="450.458" y2="139.237"></line>	<path style="fill:none;stroke:#000000;stroke-width:30;stroke-miterlimit:10;" d="M78.034,429.255H15V49.231h187.136&#10;&#9;&#9;c29.725,0,53.822,24.097,53.822,53.822v320.02v-320.02c0-29.725,24.097-53.822,53.822-53.822h187.136v380.023H138.034"></path>	<polyline style="fill:none;stroke:#000000;stroke-width:30;stroke-miterlimit:10;" points="78.034,369.251 78.034,462.685 &#10;&#9;&#9;138.034,462.685 138.034,369.251 &#9;"></polyline></g><g></g><g></g><g></g><g></g><g></g><g></g><g></g><g></g><g></g><g></g><g></g><g></g><g></g><g></g><g></g></svg>