<svg xmlns="http://www.w3.org/2000/svg" width="80" height="80" viewBox="0 0 80 80" fill="none"><g clip-path="url(#clip0_71_120)"><path d="M40.0001 59.0373L22.3519 76.6855L9.56641 63.9L27.2146 46.252" stroke="#D1B597" stroke-width="5" stroke-miterlimit="10"></path><path d="M40.0001 33.4665L70.4336 63.9L57.6481 76.6854L23.2613 42.2987C18.8719 37.9093 16.406 31.9562 16.406 25.7488C16.4062 12.8225 26.8849 2.34363 39.8112 2.34363H40.1887C53.115 2.34363 63.5938 12.8225 63.5938 25.7488C63.5938 31.9562 61.128 37.9093 56.7386 42.2987L52.7853 46.252" stroke="#D1B597" stroke-width="5" stroke-miterlimit="10"></path><path d="M50.8085 13.4528V13.1521C50.8085 7.18281 45.9694 2.34375 40.0001 2.34375C34.0307 2.34375 29.1917 7.18281 29.1917 13.1521V13.4528C29.1917 19.3468 31.533 24.9994 35.7008 29.1672L40.0002 33.4666L44.2996 29.1672C48.467 24.9994 50.8085 19.3468 50.8085 13.4528Z" stroke="#D1B597" stroke-width="5" stroke-miterlimit="10"></path></g><defs><clipPath id="clip0_71_120"><rect width="80" height="80" fill="white"></rect></clipPath></defs></svg>