<svg xmlns="http://www.w3.org/2000/svg" xmlns:svg="http://www.w3.org/2000/svg" id="svg2226" xml:space="preserve" width="682.66669" height="682.66669" viewBox="0 0 682.66669 682.66669"><defs id="defs2230"><clipPath clipPathUnits="userSpaceOnUse" id="clipPath2248"><path d="M 0,512 H 512 V 0 H 0 Z" id="path2246"></path></clipPath></defs><g id="g2232" transform="matrix(1.3333333,0,0,-1.3333333,0,682.66667)"><g id="g2234" transform="translate(84.0322,457.0029)"><path d="M 0,0 H 74.186" style="fill:none;stroke:#000000;stroke-width:15;stroke-linecap:round;stroke-linejoin:round;stroke-miterlimit:10;stroke-dasharray:none;stroke-opacity:1" id="path2236"></path></g><g id="g2238" transform="translate(84.0322,411.8896)"><path d="M 0,0 H 74.186" style="fill:none;stroke:#000000;stroke-width:15;stroke-linecap:round;stroke-linejoin:round;stroke-miterlimit:10;stroke-dasharray:none;stroke-opacity:1" id="path2240"></path></g><g id="g2242"><g id="g2244" clip-path="url(#clipPath2248)"><g id="g2250" transform="translate(451.7031,325.708)"><path d="m 0,0 15.473,-11.018 c 4.504,-3.207 5.555,-9.46 2.347,-13.963 l -32.34,-45.417" style="fill:none;stroke:#000000;stroke-width:15;stroke-linecap:round;stroke-linejoin:round;stroke-miterlimit:10;stroke-dasharray:none;stroke-opacity:1" id="path2252"></path></g><g id="g2254" transform="translate(79.1025,55.9492)"><path d="M 0,0 C 0,0 44.191,63.3 63.688,49.763 76.335,40.982 33.226,-17.645 58.707,1.251 117.723,45.012 103.629,0.75 155.893,0.75" style="fill:none;stroke:#000000;stroke-width:15;stroke-linecap:round;stroke-linejoin:round;stroke-miterlimit:10;stroke-dasharray:none;stroke-opacity:1" id="path2256"></path></g><g id="g2258" transform="translate(276.0654,89.9941)"><path d="m 0,0 -16.78,-13.69 c -6.782,-5.533 -16.532,1.41 -13.522,9.628 l 7.448,20.335 c 5.588,15.26 13.198,29.702 22.624,42.939 l 149.942,210.571 c 3.292,4.623 9.708,5.702 14.331,2.41 l 16.665,-11.867 c 4.623,-3.292 5.702,-9.708 2.41,-14.331 L 33.177,35.424 C 23.75,22.187 12.593,10.272 0,0 Z" style="fill:none;stroke:#000000;stroke-width:15;stroke-linecap:round;stroke-linejoin:round;stroke-miterlimit:10;stroke-dasharray:none;stroke-opacity:1" id="path2260"></path></g><g id="g2262" transform="translate(337.2754,164.7881)"><path d="M 0,0 -33.406,23.787" style="fill:none;stroke:#000000;stroke-width:15;stroke-linecap:round;stroke-linejoin:round;stroke-miterlimit:10;stroke-dasharray:none;stroke-opacity:1" id="path2264"></path></g><g id="g2266" transform="translate(459.4277,347.541)"><path d="m 0,0 13.688,19.225 c 2.249,3.156 1.512,7.538 -1.645,9.786 L 0.661,37.115 c -3.156,2.248 -7.538,1.512 -9.786,-1.645 L -22.814,16.245" style="fill:none;stroke:#000000;stroke-width:15;stroke-linecap:round;stroke-linejoin:round;stroke-miterlimit:10;stroke-dasharray:none;stroke-opacity:1" id="path2268"></path></g><g id="g2270" transform="translate(307.873,502.2207)"><path d="m 0,0 v -56.829 c 0,-18.445 14.953,-33.398 33.397,-33.398 h 56.83" style="fill:none;stroke:#000000;stroke-width:15;stroke-linecap:round;stroke-linejoin:round;stroke-miterlimit:10;stroke-dasharray:none;stroke-opacity:1" id="path2272"></path></g><g id="g2274" transform="translate(400.3799,364.6523)"><path d="m 0,0 v 36.861 c 0,6.711 -2.666,13.146 -7.411,17.891 l -77.685,77.685 c -4.745,4.745 -11.18,7.411 -17.89,7.411 H -329.4 c -18.446,0 -33.398,-14.953 -33.398,-33.398 v -430.205 c 0,-18.444 14.952,-33.397 33.398,-33.397 h 296.002 c 18.445,0 33.398,14.953 33.398,33.397 v 171.779" style="fill:none;stroke:#000000;stroke-width:15;stroke-linecap:round;stroke-linejoin:round;stroke-miterlimit:10;stroke-dasharray:none;stroke-opacity:1" id="path2276"></path></g></g></g></g></svg>