<svg xmlns="http://www.w3.org/2000/svg" id="Layer_1" height="512" viewBox="0 0 512 512" width="512"><path d="m322.206 98.971h-33.585v-33.585c0-3.866-3.134-7-7-7h-51.242c-3.866 0-7 3.134-7 7v33.584h-33.584c-3.866 0-7 3.134-7 7v51.243c0 3.866 3.134 7 7 7h33.584v33.584c0 3.866 3.134 7 7 7h51.242c3.866 0 7-3.134 7-7v-33.584h33.585c3.866 0 7-3.134 7-7v-51.243c0-3.865-3.134-6.999-7-6.999zm-7 51.242h-33.585c-3.866 0-7 3.134-7 7v33.584h-37.242v-33.584c0-3.866-3.134-7-7-7h-33.584v-37.243h33.584c3.866 0 7-3.134 7-7v-33.584h37.242v33.584c0 3.866 3.134 7 7 7h33.585zm134.771-31.812c-7.25-7.25-16.922-11.243-27.233-11.243s-19.983 3.993-27.233 11.243l-16.944 16.944c.038-1.251.063-2.502.063-3.753-.001-67.618-55.012-122.629-122.63-122.629s-122.629 55.011-122.629 122.629 55.011 122.629 122.629 122.629c1.251 0 2.503-.026 3.753-.064l-66.575 66.575c-2.734 2.734-2.734 7.166 0 9.899l4.254 4.254-144.599 144.6c-2.734 2.733-2.734 7.165 0 9.898 8.851 8.851 24.979 13.654 42.263 13.653 19.699-.002 40.897-6.243 54.5-19.847l48.481-48.48c2.526-2.524 2.615-4.895 3.194-20.318.156-4.181.329-8.789.549-11.775l31.672-31.671 4.254 4.254c1.312 1.312 3.093 2.05 4.949 2.05s3.637-.737 4.949-2.05l202.331-202.331c7.25-7.25 11.242-16.921 11.242-27.234s-3.991-19.984-11.24-27.233zm-193.977 121.82c-59.898 0-108.629-48.73-108.629-108.629s48.731-108.629 108.629-108.629 108.629 48.73 108.629 108.629c0 6.528-.587 13.051-1.736 19.426l-87.466 87.466c-6.374 1.149-12.898 1.737-19.427 1.737zm-65.847 154.265c-1.077 1.077-1.773 2.476-1.983 3.984-.426 3.059-.65 9.052-.889 15.396-.15 3.994-.362 9.663-.607 12.447l-46.977 46.978c-18.144 18.143-54.121 18.973-71.145 10.271l138.779-138.779 16.262 16.262zm52.542-34.136-34.668-34.668 16.491-16.491 34.668 34.668zm197.382-197.381-170.991 170.991-34.668-34.668 170.99-170.992c4.606-4.605 10.763-7.142 17.335-7.142s12.729 2.537 17.334 7.142 7.142 10.761 7.142 17.334-2.537 12.729-7.142 17.335zm-13.523-21.146c2.734 2.734 2.734 7.166 0 9.899l-70.268 70.268c-1.366 1.367-3.158 2.05-4.949 2.05s-3.583-.684-4.949-2.05c-2.734-2.733-2.734-7.166 0-9.899l70.268-70.268c2.732-2.734 7.165-2.734 9.898 0z"></path></svg>