<svg xmlns="http://www.w3.org/2000/svg" width="80" height="80" viewBox="0 0 80 80" fill="none"><g clip-path="url(#clip0_71_196)"><path d="M47.8462 64.0831L71.5445 59.7512C74.1484 59.2752 76.6898 60.8488 77.4241 63.3921C78.2204 66.1501 76.6105 69.0273 73.8434 69.7913L47.8929 76.956C45.0849 77.7312 42.1385 77.8645 39.2721 77.3457L16.8553 73.2895H2.3723V53.4435H14.09C16.0912 51.4423 18.8053 50.3181 21.6353 50.3181H25.5734C28.7018 50.3181 31.6728 51.6911 33.7002 54.0737L34.0946 54.5373H43.9395C47.0464 54.5373 49.5651 57.0561 49.5651 60.163C49.5651 63.2699 47.0464 65.7886 43.9395 65.7886H30.0317" stroke="#D1B597" stroke-width="5" stroke-miterlimit="10"></path><path d="M54.722 28.5969L58.6269 24.692C63.7421 19.577 63.7421 11.2836 58.6269 6.16861C53.5118 1.0535 45.1481 1.07694 40.0328 6.1922C34.9177 1.07709 26.5539 1.0535 21.4387 6.16861C16.3236 11.2836 16.3236 19.577 21.4387 24.692L40.0328 43.2861L47.3774 35.9415" stroke="#D1B597" stroke-width="5" stroke-miterlimit="10"></path><path d="M40.0328 13.2827V24.8465" stroke="#D1B597" stroke-width="5" stroke-miterlimit="10"></path><path d="M45.8147 19.0646H34.2509" stroke="#D1B597" stroke-width="5" stroke-miterlimit="10"></path><path d="M68.4773 33.7169C68.4773 36.5445 66.185 38.8368 63.3573 38.8368H51.0908C48.2631 38.8368 45.9708 36.5445 45.9708 33.7169C45.9708 30.8892 48.2631 28.5969 51.0908 28.5969H63.3573C66.185 28.5969 68.4773 30.8892 68.4773 33.7169Z" stroke="#D1B597" stroke-width="5" stroke-miterlimit="10"></path><path d="M57.2241 38.6393V28.7944" stroke="#D1B597" stroke-width="5" stroke-miterlimit="10"></path></g><defs><clipPath id="clip0_71_196"><rect width="80" height="80" fill="white"></rect></clipPath></defs></svg>